<svg data-v-423bf9ae="" xmlns="http://www.w3.org/2000/svg" viewBox="0 0 305.81180381336 184" class="iconAboveSlogan"><!----><!----><!----><g data-v-423bf9ae="" id="899e0fe5-8efa-4b54-8fe1-eb56101c7012" fill="black" transform="matrix(5.535055272639999,0,0,5.535055272639999,-3.487084912384745,85.56457584015715)"><path d="M6.67 10.17L6.47 10.36L2.04 10.36L2.04 10.36Q2.05 11.13 2.26 11.70L2.26 11.70L2.26 11.70Q2.47 12.26 2.84 12.58L2.84 12.58L2.84 12.58Q3.20 12.91 3.63 13.06L3.63 13.06L3.63 13.06Q4.07 13.21 4.58 13.21L4.58 13.21L4.58 13.21Q5.29 13.21 6.10 12.73L6.10 12.73L6.32 13.14L6.32 13.14Q5.74 13.64 5.17 13.82L5.17 13.82L5.17 13.82Q4.59 13.99 3.86 13.99L3.86 13.99L3.86 13.99Q3.23 13.99 2.64 13.72L2.64 13.72L2.64 13.72Q2.05 13.45 1.61 12.98L1.61 12.98L1.61 12.98Q1.16 12.50 0.90 11.81L0.90 11.81L0.90 11.81Q0.63 11.12 0.63 10.32L0.63 10.32L0.63 10.32Q0.63 9.56 0.82 8.94L0.82 8.94L0.82 8.94Q1.02 8.31 1.34 7.90L1.34 7.90L1.34 7.90Q1.66 7.48 2.09 7.19L2.09 7.19L2.09 7.19Q2.52 6.90 2.96 6.78L2.96 6.78L2.96 6.78Q3.41 6.65 3.88 6.65L3.88 6.65L3.88 6.65Q4.46 6.65 4.95 6.87L4.95 6.87L4.95 6.87Q5.45 7.08 5.83 7.50L5.83 7.50L5.83 7.50Q6.22 7.92 6.44 8.61L6.44 8.61L6.44 8.61Q6.67 9.29 6.67 10.17L6.67 10.17ZM3.90 7.31L3.90 7.31L3.90 7.31Q3.12 7.31 2.65 7.94L2.65 7.94L2.65 7.94Q2.18 8.56 2.07 9.64L2.07 9.64L5.33 9.64L5.33 9.64Q5.33 8.54 4.96 7.93L4.96 7.93L4.96 7.93Q4.59 7.31 3.90 7.31ZM8.28 11.09L8.95 12.93L8.95 12.93Q10.02 13.19 10.74 13.19L10.74 13.19L10.74 13.19Q11.11 13.19 11.47 13.11L11.47 13.11L11.47 13.11Q11.83 13.04 12.11 12.84L12.11 12.84L12.11 12.84Q12.39 12.65 12.57 12.34L12.57 12.34L12.57 12.34Q12.74 12.02 12.74 11.54L12.74 11.54L12.74 11.54Q12.74 11.22 12.65 10.95L12.65 10.95L12.65 10.95Q12.56 10.67 12.33 10.40L12.33 10.40L12.33 10.40Q12.09 10.12 11.69 9.84L11.69 9.84L11.69 9.84Q11.29 9.56 10.66 9.21L10.66 9.21L10.66 9.21Q9.97 8.85 9.48 8.51L9.48 8.51L9.48 8.51Q8.98 8.18 8.66 7.83L8.66 7.83L8.66 7.83Q8.33 7.47 8.18 7.06L8.18 7.06L8.18 7.06Q8.03 6.65 8.03 6.13L8.03 6.13L8.03 6.13Q8.03 3.55 11.25 3.55L11.25 3.55L11.25 3.55Q12.39 3.55 13.65 3.87L13.65 3.87L13.65 6.23L13.37 6.23L12.63 4.50L12.63 4.50Q11.91 4.35 11.33 4.35L11.33 4.35L11.33 4.35Q10.35 4.35 9.80 4.72L9.80 4.72L9.80 4.72Q9.26 5.09 9.26 5.87L9.26 5.87L9.26 5.87Q9.26 6.15 9.33 6.39L9.33 6.39L9.33 6.39Q9.41 6.64 9.64 6.90L9.64 6.90L9.64 6.90Q9.87 7.17 10.29 7.47L10.29 7.47L10.29 7.47Q10.72 7.77 11.41 8.16L11.41 8.16L11.41 8.16Q12.09 8.52 12.60 8.84L12.60 8.84L12.60 8.84Q13.11 9.15 13.45 9.48L13.45 9.48L13.45 9.48Q13.78 9.82 13.95 10.21L13.95 10.21L13.95 10.21Q14.12 10.60 14.12 11.11L14.12 11.11L14.12 11.11Q14.12 11.93 13.84 12.48L13.84 12.48L13.84 12.48Q13.57 13.03 13.11 13.37L13.11 13.37L13.11 13.37Q12.65 13.71 12.03 13.85L12.03 13.85L12.03 13.85Q11.42 13.99 10.74 13.99L10.74 13.99L10.74 13.99Q10.34 13.99 10.00 13.97L10.00 13.97L10.00 13.97Q9.67 13.95 9.34 13.89L9.34 13.89L9.34 13.89Q9.01 13.84 8.67 13.76L8.67 13.76L8.67 13.76Q8.33 13.67 7.92 13.56L7.92 13.56L7.92 11.09L8.28 11.09ZM19.85 7.36L17.61 7.77L17.61 11.58L17.61 11.58Q17.61 12.04 17.68 12.36L17.68 12.36L17.68 12.36Q17.75 12.67 17.89 12.83L17.89 12.83L17.89 12.83Q18.03 12.98 18.19 13.04L18.19 13.04L18.19 13.04Q18.35 13.10 18.57 13.10L18.57 13.10L18.57 13.10Q18.98 13.10 19.25 13.03L19.25 13.03L19.25 13.03Q19.53 12.95 19.85 12.76L19.85 12.76L20.06 13.19L20.06 13.19Q19.10 13.99 17.95 13.99L17.95 13.99L17.95 13.99Q17.28 13.99 16.82 13.46L16.82 13.46L16.82 13.46Q16.35 12.93 16.35 11.98L16.35 11.98L16.35 7.77L15.08 7.42L15.08 7.14L16.41 6.86L16.91 4.98L17.61 4.98L17.61 6.86L19.61 6.86L19.85 6.95L19.85 7.36ZM22.05 7.92L20.79 7.42L20.79 7.14L23.17 6.65L23.31 6.79L23.31 11.35L23.31 11.35Q23.31 12.33 23.65 12.71L23.65 12.71L23.65 12.71Q23.99 13.10 24.79 13.10L24.79 13.10L24.79 13.10Q25.74 13.10 26.45 12.50L26.45 12.50L26.45 7.92L25.19 7.42L25.19 7.14L27.57 6.65L27.71 6.79L27.71 12.87L28.97 13.22L28.97 13.47L26.59 13.99L26.45 13.85L26.45 13.04L26.45 13.04Q25.98 13.49 25.35 13.74L25.35 13.74L25.35 13.74Q24.73 13.99 24.11 13.99L24.11 13.99L24.11 13.99Q23.70 13.99 23.34 13.86L23.34 13.86L23.34 13.86Q22.98 13.73 22.69 13.47L22.69 13.47L22.69 13.47Q22.39 13.21 22.22 12.77L22.22 12.77L22.22 12.77Q22.05 12.33 22.05 11.76L22.05 11.76L22.05 7.92ZM36.12 12.87L37.38 13.22L37.38 13.47L35 13.99L34.86 13.85L34.86 13.19L34.86 13.19Q34.04 13.99 32.93 13.99L32.93 13.99L32.93 13.99Q32.36 13.99 31.83 13.74L31.83 13.74L31.83 13.74Q31.31 13.48 30.91 13.02L30.91 13.02L30.91 13.02Q30.50 12.56 30.26 11.86L30.26 11.86L30.26 11.86Q30.02 11.16 30.02 10.32L30.02 10.32L30.02 10.32Q30.02 9.51 30.29 8.82L30.29 8.82L30.29 8.82Q30.57 8.13 31.04 7.66L31.04 7.66L31.04 7.66Q31.51 7.19 32.16 6.93L32.16 6.93L32.16 6.93Q32.80 6.67 33.52 6.67L33.52 6.67L33.52 6.67Q34.17 6.67 34.86 6.89L34.86 6.89L34.86 4.42L33.60 3.92L33.60 3.64L35.98 3.15L36.12 3.29L36.12 12.87ZM34.86 12.45L34.86 12.45L34.86 7.70L34.86 7.70Q34.23 7.36 33.66 7.36L33.66 7.36L33.66 7.36Q32.70 7.36 32.07 8.21L32.07 8.21L32.07 8.21Q31.45 9.06 31.45 10.32L31.45 10.32L31.45 10.32Q31.45 11.65 31.96 12.46L31.96 12.46L31.96 12.46Q32.48 13.26 33.41 13.26L33.41 13.26L33.41 13.26Q34.26 13.26 34.86 12.45ZM40.89 13.05L42.14 13.54L42.14 13.82L38.36 13.82L38.36 13.54L39.62 13.05L39.62 7.92L38.36 7.42L38.36 7.14L40.74 6.65L40.89 6.79L40.89 13.05ZM39.16 4.59L39.16 4.59L39.16 4.59Q39.16 4.24 39.41 3.99L39.41 3.99L39.41 3.99Q39.66 3.74 40.03 3.74L40.03 3.74L40.03 3.74Q40.39 3.74 40.64 3.99L40.64 3.99L40.64 3.99Q40.89 4.24 40.89 4.59L40.89 4.59L40.89 4.59Q40.89 4.96 40.64 5.21L40.64 5.21L40.64 5.21Q40.39 5.46 40.03 5.46L40.03 5.46L40.03 5.46Q39.66 5.46 39.41 5.21L39.41 5.21L39.41 5.21Q39.16 4.96 39.16 4.59ZM49.23 10.17L49.03 10.36L44.60 10.36L44.60 10.36Q44.61 11.13 44.82 11.70L44.82 11.70L44.82 11.70Q45.04 12.26 45.40 12.58L45.40 12.58L45.40 12.58Q45.76 12.91 46.19 13.06L46.19 13.06L46.19 13.06Q46.63 13.21 47.14 13.21L47.14 13.21L47.14 13.21Q47.85 13.21 48.67 12.73L48.67 12.73L48.88 13.14L48.88 13.14Q48.30 13.64 47.73 13.82L47.73 13.82L47.73 13.82Q47.15 13.99 46.42 13.99L46.42 13.99L46.42 13.99Q45.79 13.99 45.20 13.72L45.20 13.72L45.20 13.72Q44.61 13.45 44.17 12.98L44.17 12.98L44.17 12.98Q43.72 12.50 43.46 11.81L43.46 11.81L43.46 11.81Q43.19 11.12 43.19 10.32L43.19 10.32L43.19 10.32Q43.19 9.56 43.38 8.94L43.38 8.94L43.38 8.94Q43.58 8.31 43.90 7.90L43.90 7.90L43.90 7.90Q44.22 7.48 44.65 7.19L44.65 7.19L44.65 7.19Q45.08 6.90 45.52 6.78L45.52 6.78L45.52 6.78Q45.97 6.65 46.44 6.65L46.44 6.65L46.44 6.65Q47.02 6.65 47.51 6.87L47.51 6.87L47.51 6.87Q48.01 7.08 48.40 7.50L48.40 7.50L48.40 7.50Q48.78 7.92 49.00 8.61L49.00 8.61L49.00 8.61Q49.23 9.29 49.23 10.17L49.23 10.17ZM46.46 7.31L46.46 7.31L46.46 7.31Q45.68 7.31 45.21 7.94L45.21 7.94L45.21 7.94Q44.74 8.56 44.63 9.64L44.63 9.64L47.89 9.64L47.89 9.64Q47.89 8.54 47.52 7.93L47.52 7.93L47.52 7.93Q47.15 7.31 46.46 7.31ZM50.48 6.82L55.88 6.82L55.88 7.52L51.79 13.13L54.73 13.13L55.53 11.44L55.81 11.44L55.81 13.82L50.42 13.82L50.42 13.13L54.50 7.52L51.56 7.52L50.76 9.20L50.48 9.20L50.48 6.82Z"></path></g><!----><g data-v-423bf9ae="" id="5ec29b07-6380-4c6f-95e0-e430a3a5d94b" transform="matrix(2.8125,0,0,2.8125,108,0)" stroke="none" fill="black"><path d="M0 32h32V0H0v32zm19.377-19.492l6.936-6.936v20.855h-6.936V12.508zM5.688 5.572l6.936 6.936v13.919H5.688V5.572z"></path></g><!----><g data-v-423bf9ae="" id="3331585f-6631-40cf-8de1-19d6a9c24807" fill="black" transform="matrix(0.7515527176242102,0,0,0.7515527176242102,38.601318997889976,201.67379604886946)"><path d="M7.95 3.22L7.95 2.21L1.13 2.21L1.13 11.48L7.95 11.48L7.95 10.47L2.18 10.47L2.18 7.35L7.34 7.35L7.34 6.33L2.18 6.33L2.18 3.22ZM20.55 2.21L16.65 2.21L16.65 11.48L20.55 11.48C22.76 11.48 24.81 9.74 24.81 6.85C24.81 3.95 22.76 2.21 20.55 2.21ZM20.51 10.49L17.70 10.49L17.70 3.21L20.51 3.21C22.48 3.21 23.76 4.86 23.76 6.85C23.76 8.83 22.48 10.49 20.51 10.49ZM40.22 2.21L40.22 7.52C40.22 9.67 38.79 10.57 37.32 10.57C35.85 10.57 34.44 9.67 34.44 7.52L34.44 2.21L33.39 2.21L33.39 7.49C33.39 9.95 35.01 11.59 37.32 11.59C39.65 11.59 41.27 9.94 41.27 7.49L41.27 2.21ZM54.40 10.57C52.15 10.57 50.89 8.93 50.89 6.85C50.89 4.76 52.15 3.12 54.40 3.12C55.93 3.12 56.94 3.85 57.41 4.98L58.52 4.98C57.93 3.29 56.42 2.10 54.32 2.10C51.53 2.10 49.84 4.21 49.84 6.85C49.84 9.48 51.53 11.59 54.32 11.59C56.42 11.59 57.93 10.40 58.52 8.71L57.41 8.71C56.94 9.84 55.93 10.57 54.40 10.57ZM71.25 2.21L69.93 2.21L66.00 11.48L67.16 11.48L68.29 8.79L72.88 8.79L74.02 11.48L75.18 11.48ZM68.70 7.83L70.59 3.30L72.48 7.83ZM89.11 2.21L81.59 2.21L81.59 3.22L84.83 3.22L84.83 11.48L85.88 11.48L85.88 3.22L89.11 3.22ZM98.49 2.21L97.44 2.21L97.44 11.48L98.49 11.48ZM111.87 2.10C109.06 2.10 107.17 4.21 107.17 6.85C107.17 9.48 109.06 11.59 111.87 11.59C114.69 11.59 116.58 9.48 116.58 6.85C116.58 4.21 114.69 2.10 111.87 2.10ZM111.87 10.57C109.62 10.57 108.22 8.93 108.22 6.85C108.22 4.76 109.62 3.12 111.87 3.12C114.13 3.12 115.53 4.76 115.53 6.85C115.53 8.93 114.13 10.57 111.87 10.57ZM132.20 2.21L132.20 10.01L126.48 2.21L125.26 2.21L125.26 11.48L126.31 11.48L126.31 3.65L132.03 11.48L133.25 11.48L133.25 2.21ZM141.54 13.34L142.49 13.34L143.72 10.36L142.35 10.36ZM163.20 4.65C163.20 4.03 163.56 3.08 165.66 3.08C167.36 3.08 168.14 3.82 168.25 4.75L169.33 4.75C169.25 3.36 168.13 2.10 165.66 2.10C163.34 2.10 162.18 3.15 162.18 4.66C162.18 7.84 168.52 6.69 168.52 8.96C168.52 10.05 167.54 10.60 165.97 10.60C164.36 10.60 163.06 10.05 162.99 8.71L161.90 8.71C162.04 10.37 163.16 11.59 165.90 11.59C168.18 11.59 169.57 10.64 169.57 8.92C169.57 5.68 163.20 6.80 163.20 4.65ZM179.24 2.21L178.19 2.21L178.19 11.48L179.24 11.48ZM196.31 2.21L193.05 6.61L189.73 2.21L188.51 2.21L188.51 11.48L189.56 11.48L189.56 3.81L193.05 8.22L196.48 3.81L196.48 11.48L197.53 11.48L197.53 2.21ZM207.84 8.18L210.97 8.18C212.94 8.18 214.16 7.03 214.16 5.19C214.16 3.37 212.94 2.21 210.97 2.21L206.79 2.21L206.79 11.48L207.84 11.48ZM210.90 3.21C212.35 3.21 213.11 3.96 213.11 5.19C213.11 6.44 212.35 7.20 210.90 7.20L207.84 7.20L207.84 3.21ZM222.59 2.21L222.59 11.48L228.69 11.48L228.69 10.47L223.64 10.47L223.64 2.21ZM238.10 2.21L237.05 2.21L237.05 11.48L238.10 11.48ZM254.06 3.22L254.06 2.21L247.37 2.21L247.37 11.48L248.42 11.48L248.42 7.46L253.44 7.46L253.44 6.44L248.42 6.44L248.42 3.22ZM263.58 2.21L262.53 2.21L262.53 11.48L263.58 11.48ZM279.66 3.22L279.66 2.21L272.85 2.21L272.85 11.48L279.66 11.48L279.66 10.47L273.90 10.47L273.90 7.35L279.05 7.35L279.05 6.33L273.90 6.33L273.90 3.22ZM292.26 2.21L288.36 2.21L288.36 11.48L292.26 11.48C294.48 11.48 296.52 9.74 296.52 6.85C296.52 3.95 294.48 2.21 292.26 2.21ZM292.22 10.49L289.41 10.49L289.41 3.21L292.22 3.21C294.20 3.21 295.47 4.86 295.47 6.85C295.47 8.83 294.20 10.49 292.22 10.49ZM304.95 10.05L304.95 11.48L306.31 11.48L306.31 10.05ZM306.01 8.92L306.28 2.21L304.98 2.21L305.24 8.92Z"></path></g></svg>