<svg data-v-423bf9ae="" xmlns="http://www.w3.org/2000/svg" viewBox="0 0 305.81180381336 60" class="font"><!----><!----><!----><g data-v-423bf9ae="" id="d911f206-0e95-4903-ae15-61491fb3f493" fill="white" transform="matrix(5.535055272639999,0,0,5.535055272639999,-3.487084912384745,-17.435424159842846)"><path d="M6.67 10.17L6.47 10.36L2.04 10.36L2.04 10.36Q2.05 11.13 2.26 11.70L2.26 11.70L2.26 11.70Q2.47 12.26 2.84 12.58L2.84 12.58L2.84 12.58Q3.20 12.91 3.63 13.06L3.63 13.06L3.63 13.06Q4.07 13.21 4.58 13.21L4.58 13.21L4.58 13.21Q5.29 13.21 6.10 12.73L6.10 12.73L6.32 13.14L6.32 13.14Q5.74 13.64 5.17 13.82L5.17 13.82L5.17 13.82Q4.59 13.99 3.86 13.99L3.86 13.99L3.86 13.99Q3.23 13.99 2.64 13.72L2.64 13.72L2.64 13.72Q2.05 13.45 1.61 12.98L1.61 12.98L1.61 12.98Q1.16 12.50 0.90 11.81L0.90 11.81L0.90 11.81Q0.63 11.12 0.63 10.32L0.63 10.32L0.63 10.32Q0.63 9.56 0.82 8.94L0.82 8.94L0.82 8.94Q1.02 8.31 1.34 7.90L1.34 7.90L1.34 7.90Q1.66 7.48 2.09 7.19L2.09 7.19L2.09 7.19Q2.52 6.90 2.96 6.78L2.96 6.78L2.96 6.78Q3.41 6.65 3.88 6.65L3.88 6.65L3.88 6.65Q4.46 6.65 4.95 6.87L4.95 6.87L4.95 6.87Q5.45 7.08 5.83 7.50L5.83 7.50L5.83 7.50Q6.22 7.92 6.44 8.61L6.44 8.61L6.44 8.61Q6.67 9.29 6.67 10.17L6.67 10.17ZM3.90 7.31L3.90 7.31L3.90 7.31Q3.12 7.31 2.65 7.94L2.65 7.94L2.65 7.94Q2.18 8.56 2.07 9.64L2.07 9.64L5.33 9.64L5.33 9.64Q5.33 8.54 4.96 7.93L4.96 7.93L4.96 7.93Q4.59 7.31 3.90 7.31ZM8.28 11.09L8.95 12.93L8.95 12.93Q10.02 13.19 10.74 13.19L10.74 13.19L10.74 13.19Q11.11 13.19 11.47 13.11L11.47 13.11L11.47 13.11Q11.83 13.04 12.11 12.84L12.11 12.84L12.11 12.84Q12.39 12.65 12.57 12.34L12.57 12.34L12.57 12.34Q12.74 12.02 12.74 11.54L12.74 11.54L12.74 11.54Q12.74 11.22 12.65 10.95L12.65 10.95L12.65 10.95Q12.56 10.67 12.33 10.40L12.33 10.40L12.33 10.40Q12.09 10.12 11.69 9.84L11.69 9.84L11.69 9.84Q11.29 9.56 10.66 9.21L10.66 9.21L10.66 9.21Q9.97 8.85 9.48 8.51L9.48 8.51L9.48 8.51Q8.98 8.18 8.66 7.83L8.66 7.83L8.66 7.83Q8.33 7.47 8.18 7.06L8.18 7.06L8.18 7.06Q8.03 6.65 8.03 6.13L8.03 6.13L8.03 6.13Q8.03 3.55 11.25 3.55L11.25 3.55L11.25 3.55Q12.39 3.55 13.65 3.87L13.65 3.87L13.65 6.23L13.37 6.23L12.63 4.50L12.63 4.50Q11.91 4.35 11.33 4.35L11.33 4.35L11.33 4.35Q10.35 4.35 9.80 4.72L9.80 4.72L9.80 4.72Q9.26 5.09 9.26 5.87L9.26 5.87L9.26 5.87Q9.26 6.15 9.33 6.39L9.33 6.39L9.33 6.39Q9.41 6.64 9.64 6.90L9.64 6.90L9.64 6.90Q9.87 7.17 10.29 7.47L10.29 7.47L10.29 7.47Q10.72 7.77 11.41 8.16L11.41 8.16L11.41 8.16Q12.09 8.52 12.60 8.84L12.60 8.84L12.60 8.84Q13.11 9.15 13.45 9.48L13.45 9.48L13.45 9.48Q13.78 9.82 13.95 10.21L13.95 10.21L13.95 10.21Q14.12 10.60 14.12 11.11L14.12 11.11L14.12 11.11Q14.12 11.93 13.84 12.48L13.84 12.48L13.84 12.48Q13.57 13.03 13.11 13.37L13.11 13.37L13.11 13.37Q12.65 13.71 12.03 13.85L12.03 13.85L12.03 13.85Q11.42 13.99 10.74 13.99L10.74 13.99L10.74 13.99Q10.34 13.99 10.00 13.97L10.00 13.97L10.00 13.97Q9.67 13.95 9.34 13.89L9.34 13.89L9.34 13.89Q9.01 13.84 8.67 13.76L8.67 13.76L8.67 13.76Q8.33 13.67 7.92 13.56L7.92 13.56L7.92 11.09L8.28 11.09ZM19.85 7.36L17.61 7.77L17.61 11.58L17.61 11.58Q17.61 12.04 17.68 12.36L17.68 12.36L17.68 12.36Q17.75 12.67 17.89 12.83L17.89 12.83L17.89 12.83Q18.03 12.98 18.19 13.04L18.19 13.04L18.19 13.04Q18.35 13.10 18.57 13.10L18.57 13.10L18.57 13.10Q18.98 13.10 19.25 13.03L19.25 13.03L19.25 13.03Q19.53 12.95 19.85 12.76L19.85 12.76L20.06 13.19L20.06 13.19Q19.10 13.99 17.95 13.99L17.95 13.99L17.95 13.99Q17.28 13.99 16.82 13.46L16.82 13.46L16.82 13.46Q16.35 12.93 16.35 11.98L16.35 11.98L16.35 7.77L15.08 7.42L15.08 7.14L16.41 6.86L16.91 4.98L17.61 4.98L17.61 6.86L19.61 6.86L19.85 6.95L19.85 7.36ZM22.05 7.92L20.79 7.42L20.79 7.14L23.17 6.65L23.31 6.79L23.31 11.35L23.31 11.35Q23.31 12.33 23.65 12.71L23.65 12.71L23.65 12.71Q23.99 13.10 24.79 13.10L24.79 13.10L24.79 13.10Q25.74 13.10 26.45 12.50L26.45 12.50L26.45 7.92L25.19 7.42L25.19 7.14L27.57 6.65L27.71 6.79L27.71 12.87L28.97 13.22L28.97 13.47L26.59 13.99L26.45 13.85L26.45 13.04L26.45 13.04Q25.98 13.49 25.35 13.74L25.35 13.74L25.35 13.74Q24.73 13.99 24.11 13.99L24.11 13.99L24.11 13.99Q23.70 13.99 23.34 13.86L23.34 13.86L23.34 13.86Q22.98 13.73 22.69 13.47L22.69 13.47L22.69 13.47Q22.39 13.21 22.22 12.77L22.22 12.77L22.22 12.77Q22.05 12.33 22.05 11.76L22.05 11.76L22.05 7.92ZM36.12 12.87L37.38 13.22L37.38 13.47L35 13.99L34.86 13.85L34.86 13.19L34.86 13.19Q34.04 13.99 32.93 13.99L32.93 13.99L32.93 13.99Q32.36 13.99 31.83 13.74L31.83 13.74L31.83 13.74Q31.31 13.48 30.91 13.02L30.91 13.02L30.91 13.02Q30.50 12.56 30.26 11.86L30.26 11.86L30.26 11.86Q30.02 11.16 30.02 10.32L30.02 10.32L30.02 10.32Q30.02 9.51 30.29 8.82L30.29 8.82L30.29 8.82Q30.57 8.13 31.04 7.66L31.04 7.66L31.04 7.66Q31.51 7.19 32.16 6.93L32.16 6.93L32.16 6.93Q32.80 6.67 33.52 6.67L33.52 6.67L33.52 6.67Q34.17 6.67 34.86 6.89L34.86 6.89L34.86 4.42L33.60 3.92L33.60 3.64L35.98 3.15L36.12 3.29L36.12 12.87ZM34.86 12.45L34.86 12.45L34.86 7.70L34.86 7.70Q34.23 7.36 33.66 7.36L33.66 7.36L33.66 7.36Q32.70 7.36 32.07 8.21L32.07 8.21L32.07 8.21Q31.45 9.06 31.45 10.32L31.45 10.32L31.45 10.32Q31.45 11.65 31.96 12.46L31.96 12.46L31.96 12.46Q32.48 13.26 33.41 13.26L33.41 13.26L33.41 13.26Q34.26 13.26 34.86 12.45ZM40.89 13.05L42.14 13.54L42.14 13.82L38.36 13.82L38.36 13.54L39.62 13.05L39.62 7.92L38.36 7.42L38.36 7.14L40.74 6.65L40.89 6.79L40.89 13.05ZM39.16 4.59L39.16 4.59L39.16 4.59Q39.16 4.24 39.41 3.99L39.41 3.99L39.41 3.99Q39.66 3.74 40.03 3.74L40.03 3.74L40.03 3.74Q40.39 3.74 40.64 3.99L40.64 3.99L40.64 3.99Q40.89 4.24 40.89 4.59L40.89 4.59L40.89 4.59Q40.89 4.96 40.64 5.21L40.64 5.21L40.64 5.21Q40.39 5.46 40.03 5.46L40.03 5.46L40.03 5.46Q39.66 5.46 39.41 5.21L39.41 5.21L39.41 5.21Q39.16 4.96 39.16 4.59ZM49.23 10.17L49.03 10.36L44.60 10.36L44.60 10.36Q44.61 11.13 44.82 11.70L44.82 11.70L44.82 11.70Q45.04 12.26 45.40 12.58L45.40 12.58L45.40 12.58Q45.76 12.91 46.19 13.06L46.19 13.06L46.19 13.06Q46.63 13.21 47.14 13.21L47.14 13.21L47.14 13.21Q47.85 13.21 48.67 12.73L48.67 12.73L48.88 13.14L48.88 13.14Q48.30 13.64 47.73 13.82L47.73 13.82L47.73 13.82Q47.15 13.99 46.42 13.99L46.42 13.99L46.42 13.99Q45.79 13.99 45.20 13.72L45.20 13.72L45.20 13.72Q44.61 13.45 44.17 12.98L44.17 12.98L44.17 12.98Q43.72 12.50 43.46 11.81L43.46 11.81L43.46 11.81Q43.19 11.12 43.19 10.32L43.19 10.32L43.19 10.32Q43.19 9.56 43.38 8.94L43.38 8.94L43.38 8.94Q43.58 8.31 43.90 7.90L43.90 7.90L43.90 7.90Q44.22 7.48 44.65 7.19L44.65 7.19L44.65 7.19Q45.08 6.90 45.52 6.78L45.52 6.78L45.52 6.78Q45.97 6.65 46.44 6.65L46.44 6.65L46.44 6.65Q47.02 6.65 47.51 6.87L47.51 6.87L47.51 6.87Q48.01 7.08 48.40 7.50L48.40 7.50L48.40 7.50Q48.78 7.92 49.00 8.61L49.00 8.61L49.00 8.61Q49.23 9.29 49.23 10.17L49.23 10.17ZM46.46 7.31L46.46 7.31L46.46 7.31Q45.68 7.31 45.21 7.94L45.21 7.94L45.21 7.94Q44.74 8.56 44.63 9.64L44.63 9.64L47.89 9.64L47.89 9.64Q47.89 8.54 47.52 7.93L47.52 7.93L47.52 7.93Q47.15 7.31 46.46 7.31ZM50.48 6.82L55.88 6.82L55.88 7.52L51.79 13.13L54.73 13.13L55.53 11.44L55.81 11.44L55.81 13.82L50.42 13.82L50.42 13.13L54.50 7.52L51.56 7.52L50.76 9.20L50.48 9.20L50.48 6.82Z"></path></g><!----><!----></svg>